<?xml version="1.0" encoding="iso-8859-1"?>
<!-- Uploaded to: SVG Repo, www.svgrepo.com, Generator: SVG Repo Mixer Tools -->
<svg height="30px" width="30px" version="1.1" id="Capa_1" xmlns="http://www.w3.org/2000/svg" xmlns:xlink="http://www.w3.org/1999/xlink" 
	 viewBox="0 0 44.224 44.224" xml:space="preserve">
<g>
	<path style="fill:#fff;" d="M22.112,44.224c1.657,0,3-1.343,3-3v-25.66c0-2.761,1.541-3.376,3.443-1.374l7.045,7.419
		c0.616,0.649,1.445,0.976,2.274,0.976c0.774,0,1.553-0.286,2.158-0.861c1.258-1.193,1.308-3.177,0.115-4.434L24.653,0.977
		C24.068,0.359,23.256,0.007,22.406,0c-0.851,0.002-1.665,0.33-2.261,0.938L4.114,17.254c-1.215,1.234-1.197,3.22,0.036,4.433
		c1.235,1.214,3.221,1.195,4.434-0.039l7.024-7.148c1.935-1.97,3.504-1.328,3.504,1.433v25.291
		C19.112,42.881,20.455,44.224,22.112,44.224z"/>
</g>
</svg>